<svg width="458" height="96" viewBox="0 0 458 96" fill="none" xmlns="http://www.w3.org/2000/svg">
<path d="M23.7856 21.3183L18.5606 59.8432H18.4046L14.0374 21.3183H0L9.51424 77H25.4233L30.2584 39.5669H30.4144L35.2495 77H51.1585L60.6728 21.3183H46.6354L42.7361 59.8432H42.5801L36.8872 21.3183H23.7856ZM80.3197 32.7042L76.3424 56.3338H84.4529L80.4756 32.7042H80.3197ZM89.522 21.3183L103.091 77H87.6503L86.1686 67.2518H74.6267L73.145 77H57.9378L71.2733 21.3183H89.522ZM105.483 21.3183V77H137.847V65.1462H119.988V21.3183H105.483ZM141.582 21.3183V77H175.271V65.1462H156.087V54.0722H173.4V42.6863H156.087V33.1721H174.57V21.3183H141.582Z" fill="white" fill-opacity="0.8"/>
<path d="M218.549 36.2274C218.445 33.8358 217.925 31.7562 216.99 29.9885C216.106 28.2208 214.884 26.7391 213.324 25.5433C211.765 24.3476 209.893 23.4637 207.709 22.8918C205.578 22.2679 203.238 21.956 200.691 21.956C199.131 21.956 197.441 22.138 195.622 22.5019C193.854 22.8658 192.19 23.5157 190.63 24.4515C189.123 25.3354 187.875 26.5572 186.887 28.1169C185.899 29.6246 185.405 31.5222 185.405 33.8098C185.405 36.0454 185.951 37.8651 187.043 39.2688C188.135 40.6725 189.565 41.8163 191.332 42.7002C193.1 43.532 195.128 44.2079 197.415 44.7278C199.703 45.2477 202.016 45.7416 204.356 46.2095C206.747 46.6774 209.061 47.2493 211.297 47.9252C213.584 48.5491 215.612 49.4329 217.38 50.5767C219.199 51.6685 220.655 53.1242 221.747 54.9439C222.839 56.7116 223.384 58.9472 223.384 61.6507C223.384 64.5621 222.761 67.0057 221.513 68.9813C220.265 70.9569 218.679 72.5686 216.756 73.8164C214.884 75.0642 212.778 75.948 210.439 76.4679C208.151 77.0398 205.942 77.3258 203.81 77.3258C200.535 77.3258 197.467 76.9618 194.608 76.234C191.748 75.5581 189.253 74.4403 187.121 72.8806C184.989 71.2689 183.3 69.2153 182.052 66.7197C180.856 64.2242 180.284 61.1828 180.336 57.5954H183.768C183.612 60.6629 184.054 63.2624 185.093 65.394C186.133 67.4736 187.563 69.1893 189.383 70.541C191.254 71.8928 193.438 72.8806 195.933 73.5045C198.429 74.0764 201.055 74.3623 203.81 74.3623C205.474 74.3623 207.241 74.1544 209.113 73.7384C211.037 73.3225 212.778 72.6206 214.338 71.6328C215.95 70.645 217.276 69.3452 218.315 67.7335C219.407 66.1218 219.953 64.0942 219.953 61.6507C219.953 59.3111 219.407 57.4135 218.315 55.9577C217.224 54.45 215.768 53.2542 213.948 52.3704C212.18 51.4346 210.153 50.7067 207.865 50.1868C205.63 49.6149 203.316 49.095 200.925 48.6271C198.585 48.1592 196.271 47.6133 193.984 46.9894C191.696 46.3655 189.669 45.5336 187.901 44.4938C186.133 43.402 184.704 42.0243 183.612 40.3606C182.52 38.6449 181.974 36.4613 181.974 33.8098C181.974 31.1583 182.52 28.8967 183.612 27.0251C184.756 25.1014 186.211 23.5677 187.979 22.4239C189.799 21.2281 191.826 20.3703 194.062 19.8504C196.297 19.2785 198.507 18.9926 200.691 18.9926C203.602 18.9926 206.306 19.3305 208.801 20.0064C211.349 20.6303 213.558 21.6441 215.43 23.0478C217.354 24.3996 218.887 26.1672 220.031 28.3508C221.175 30.5344 221.825 33.1599 221.981 36.2274H218.549Z" fill="white" fill-opacity="0.8"/>
<path d="M236.432 20.3183H239.863V45.5856H275.424V20.3183H278.856V76H275.424V48.5491H239.863V76H236.432V20.3183Z" fill="white" fill-opacity="0.8"/>
<circle cx="317.121" cy="49.0456" r="28.0261" stroke="white" stroke-opacity="0.8" stroke-width="3.04631"/>
<path fill-rule="evenodd" clip-rule="evenodd" d="M339.36 49.0456C339.36 61.3274 329.404 71.2837 317.122 71.2837C313.153 71.2837 309.427 70.2439 306.201 68.4219C307.827 67.3279 308.897 65.4705 308.897 63.3632C308.897 59.9984 306.169 57.2706 302.804 57.2706C300.697 57.2706 298.84 58.3404 297.746 59.9666C295.924 56.7408 294.884 53.0146 294.884 49.0456C294.884 36.7639 304.84 26.8076 317.122 26.8076C329.404 26.8076 339.36 36.7639 339.36 49.0456ZM333.267 38.0789C333.267 39.2566 332.313 40.2114 331.135 40.2114C329.957 40.2114 329.003 39.2566 329.003 38.0789C329.003 36.9012 329.957 35.9465 331.135 35.9465C332.313 35.9465 333.267 36.9012 333.267 38.0789Z" fill="white" fill-opacity="0.8"/>
<path d="M350.451 23.2818V20.3183H393.109V23.2818H373.457V76H370.026V23.2818H350.451Z" fill="white" fill-opacity="0.8"/>
<path d="M402.151 20.3183H405.583V76H402.151V20.3183Z" fill="white" fill-opacity="0.8"/>
<path d="M414.424 23.2818V20.3183H457.082V23.2818H437.43V76H433.998V23.2818H414.424Z" fill="white" fill-opacity="0.8"/>
</svg>
